<?xml version="1.0" encoding="UTF-8"?>
<svg id="Layer_1" xmlns="http://www.w3.org/2000/svg" version="1.1" viewBox="0 0 498.7 495.3">
  <!-- Generator: Adobe Illustrator 29.8.2, SVG Export Plug-In . SVG Version: 2.1.1 Build 3)  -->
  <defs>
    <style>
      .st0 {
        fill: #1a2d4d;
      }

      .st1 {
        fill: #aace36;
      }
    </style>
  </defs>
  <path class="st0" d="M408.8,54.7c1.7,2,1.5,3.6,1.2,6-1.2,9.4-6,20.3-8.1,29.7l.2,1.2,10,10c9.8-1.5,21-6.2,30.6-7.1,3.2-.3,5.3-.2,7.7,2.2,3.9,4,10.6,15.4,13.7,20.7,4,6.6,8.5,14.5,11.8,21.5,2.5,5.2,4.4,7.1,1.3,12.8l-20.2,26.9,6,23.6,33.5,12.7c2.7,1.9,2.8,5.5,3.1,8.5,1.7,13.7,1.9,36.3-.6,49.8-.6,3.5-1.8,5.2-5,6.7-9.2,4.3-21.4,5.8-30.8,10.2l-6.6,22.7,20.1,26.5c3.8,6.4,1.5,8.5-1.4,14.5-4.5,9.7-10.8,20.4-16.6,29.4-2.9,4.5-8.5,15.4-14.3,15l-31.3-9.3c-1.1-.3-1.7-.1-2.7.4-1.5.9-8.5,8.4-8.6,10.3l8.2,31.2c.6,4.6.2,5.4-2.9,8.4-7.1,6.7-20,15-28.6,20.2-5.7,3.5-15.3,11-21.7,7.4l-31.7-23.7-28.2,8.3-8.2,36.8c-1.6,4.2-3.9,4.6-8,5.3-14.9,2.5-44.8,2.5-59.7,0-5.2-.9-6.1-1.6-7.8-6.6-3.8-11-4.9-24.1-8.2-35.4l-29.4-8.3c-.6.2-1.1.7-1.7,1.1-9.3,6-20,17.5-29.1,22.4-3.6,1.9-5.4,1.7-9.1.1-10.7-4.4-29.8-17.4-38.9-24.9-2.6-2.2-6.4-4.7-6.3-8.5l8.6-35.2-9.5-9.5-32.8,9.4c-5.9.3-11.3-9.8-14.3-14.4-6-9.3-13.6-21.8-18-31.9-1.2-2.8-2.9-5.9-2.1-9.1l21.8-30.3-5.9-21.6-1.5-1.3c-9.5-3.7-21.5-5.7-30.6-9.8-3.8-1.7-4-5-4.5-8.8-1.9-13.4-2.2-36.5,0-49.8.9-5.6,2.2-6.3,7.2-8.4,9.1-3.8,19.3-6.4,28.5-10.3l6.7-23.9-21.3-28.6c-.8-1.2-.8-2.9-.7-4.4.3-2.6,6.4-13.9,8-16.9,4.6-8.6,13.9-25.1,20.3-31.8,2.4-2.6,3.9-2.7,7.5-2.5,8.8.6,20.1,5.7,28.9,6.6,1.2.1,1.8.1,3-.3,1.2-.4,9.2-8.9,9.2-9.9l-8-29.5c-.2-1.5-.4-3.3,0-4.7.4-1.7,7.5-7,9.3-8.4,8.5-6.4,19.3-13.3,28.6-18.5,5.4-3,12.1-8.3,18.1-4.4l28.5,18.1,28.6-7.8c.9-.3,1.1-1.2,1.4-1.9,3.1-6.8,4.6-16.6,7.2-23.9,2.7-7.7,4.1-7.5,12.1-8.4,15.4-1.7,36.1-1.7,51.5,0,4.2.5,8.8.5,10.8,4.7,2.2,4.4,7.5,27.9,9.1,29.2l28.4,8.1c1.3,0,4.4-2.2,5.7-2.9,5.4-3.2,22.4-15.8,26.9-16.3,4.8-.5,10.8,3.6,15.1,6,7.1,4,15,9.1,21.8,13.7,3.5,2.4,12.5,8.2,14.8,11h0ZM271.3,16.9c-13.8-1.7-28-1.6-41.9,0-2.9,8.4-4.5,18.5-8,26.6-4.1,9.6-11.1,8.5-19.9,11.1-7.3,2.1-15.4,5.1-22.6,6.8-3.5.8-5.8,1-9.3-.2l-30.4-18.9-28.8,18.2-.7,1.8c2.6,10.8,7.5,21.6,8.1,32.7-.3,1.2-.8,2.4-1.4,3.6-1.3,2.4-16.5,18.2-18.8,19.5-1,.6-2.4,1.3-3.5,1.5-8.2,1.7-23.8-5.2-32.6-6.3-1.2-.2-2.7-.6-3.8.4l-17.3,29.7c0,1.6,17.3,21.9,19.7,25.6,2.5,3.8,3.5,6.1,2.7,10.9-.9,6.2-6.2,24.2-8.5,30.3-1.3,3.6-2.8,5.8-6.2,7.7l-31.1,11.6c-.4.9-.5,1.8-.6,2.7-.7,6.5-.4,17.7,0,24.4.1,2.5.8,5,.8,7.5l31.4,10.2c4.5,2.3,5.5,5.1,6.9,9.7,2,6.6,6.5,20.8,7.3,27,.6,4.2,0,6.8-2.2,10.3-4.9,8.4-14,16.6-19.2,25.1-.5.6-.7,1.3-.6,2.1.1,1.7,6.3,12.2,7.7,14.5,1.2,2.1,9,15,10.1,15.4l30.2-8.6c4.8-.5,7.7-.1,11.3,3,3.5,3,13.5,13.5,16.1,17.2,2.7,3.8,1.6,7.3.8,11.4-1.6,8.6-6.2,18.8-7.4,27-.1,1-.4,2,.2,2.9l26.2,17.6,1.8-.2,28.7-22.3c5.7-3.4,8.2-2.4,14.2-1,9.3,2.2,22.9,6,31.9,9.1,5.2,1.8,7.5,3.9,9.1,9.2,3.5,10.9,4.6,23.4,8.1,34.5,5.9,1.3,12.1.8,18.1.9,2.7,0,5.1,0,7.7,0,5.4,0,10.9.3,16.3-.6l8.3-36.9c2.2-5.3,5.3-5.9,10.2-7.5,10.8-3.5,22.3-5.8,33.1-9.6,6.1-1,8.2.5,13,3.7,3.8,2.6,26.1,21,27.8,20.9l26.8-17.8c.8-1.4-7.5-27.4-8.1-31.9-.3-2.5-.4-5.2.5-7.6,1.1-2.7,14.5-16.9,17.4-19.2,3.9-3.2,6.6-3.1,11.5-2.6l28.6,8.5,1.6-.4,17.3-30.1c0-1.8-16.8-21.9-19.3-25.6-2.9-4.5-3.7-6.6-2.7-12,1.2-6.6,5.7-23.5,8.2-29.5,1.6-3.9,3.1-5.3,6.8-7,9-4.1,20.8-6,30.2-9.4,1.5-11.7,1.4-23.6.5-35.3-8.9-3.6-19-6-27.8-9.6-6.4-2.6-7.9-3.8-10.1-10.4-2.3-7-6.9-21.8-7.9-28.7-.3-1.8-.3-4.6,0-6.4.9-5.1,16.5-22,20.3-27.9.5-.9,1.7-2.1,1.6-3.1l-17.4-29.2c-.7-.8-1.8-.6-2.7-.5-8.6.7-19.5,6-28.4,6.6-3.2.2-5,0-7.9-1.6-3.2-1.7-15.7-14.5-18.2-17.8-2.5-3.2-2.9-5.5-2.3-9.6.6-4.7,8.7-28.2,7.5-30.2l-29.5-18.4c-2,0-23,15.6-27.2,17.7-9,4.6-17.4-.6-26.4-3.1-6.3-1.7-14.3-3.2-20.3-5.2-3.4-1.2-6.4-3.4-7.5-6.9l-8.3-28h0Z"/>
  <path class="st1" d="M412.5,296.7c.3,0,1,.8.8,1.3-7.3,22.4-18.9,43.7-34.6,61.4-84.3,94.9-247.9,66.1-288.6-55.1-.4-1.2-2.6-6.7-1.7-7.2l11.4.2c5.7,17.1,14.4,33,25.5,47.1,70.5,89.5,212.9,77.3,266-23.8,4.1-7.7,6.9-16,10.5-23.8h10.5Z"/>
  <path class="st1" d="M409,188.1h-11.9c-4.7-9.6-9.7-19.1-15.9-27.9-41.8-59.4-119.2-82.9-187.6-56.9-38.9,14.8-72,45.8-88.6,84.1l-1.2.7h-11.4c16.1-42.7,52.3-78,94.7-94.7,75-29.5,160.4-3.7,205.4,62.7,6.6,9.8,12.8,20.7,16.5,32h0Z"/>
  <path class="st0" d="M334.9,217.6c18.8-18.8,73.3-19.7,75.8,13.9,2.8,37.7-34.2,52.8-66.1,43.4-26.6-7.9-26.8-40.2-9.7-57.3h0ZM367.3,222.1c-8.8.8-16,5.2-19.2,13.6-4,10.6-2.1,21.4,10.2,23.9,10.8,2.1,23.6-1.3,27.7-12.5,5.9-16-1.9-26.5-18.8-24.9h0Z"/>
  <path class="st0" d="M87.4,275.6l12.8-68.7c7.7-.5,15.6-1.2,23.2.2l24.7,38,8.3-38.2h18.3c.1,0,.4-.7.8-.3l.5,1.1-12.8,67.9c-5.8-.5-13,.8-18.6,0-1.7-.2-2.3-1-3.3-2.3-7.4-9.4-14.3-22.9-21.2-33.2-1.4-2-3-4.4-4.7-6.1l-8.6,41.6h-19.7,0Z"/>
  <path class="st0" d="M319.7,228h-22.2c1.3-10.5-20-9.9-24.4-5.3-5.2,5.6,3,7.6,7.1,8.4,14.4,2.9,39.7,1.2,37.2,22.5-2.8,23.6-37.3,26.4-55.3,22.1-12.6-3-19.8-9.6-18.4-23.5h21.3l.7.9c-.6,10.3,18.5,9.9,24.5,7.1,5.5-2.5,5.7-7.9-.6-10-14.7-4.9-47.4-.7-39.9-26.6,2.9-9.8,11.4-15,20.9-17.3,16.5-4,51.9-3.6,48.9,21.4h0Z"/>
  <path class="st0" d="M179.4,223.6c-.5-.5,1.9-12.9,2.4-14.5.2-.9.3-2.2,1.3-2.6l65.6.5-3.4,16.6c-3.1.6-20.9-.8-22,.8l-9.5,51.4h-21.6l8.9-52.1h-21.6Z"/>
  <g>
    <path class="st1" d="M230.9,289.7c12.4-1.5,26.2,1.4,25.1,16.7-1.2,15.9-16.7,20.6-30.4,17.7-20.2-4.4-14.1-32.1,5.3-34.4h0ZM240.8,313.7c3.4-3.4,4.6-12.9-.9-15.1-8.6-3.3-16.1,3.8-14.3,12.6,1.3,6.1,11.5,6.1,15.2,2.4Z"/>
    <path class="st1" d="M338.5,299.5h-11.4c-.2,0-1.1-2.2-3.5-2.6-5.8-1.1-11,1.1-12.3,7.1.4.4,3.9-1.8,4.8-2.1,6.7-1.8,20.5-.4,21.2,8.4,1.3,14.9-20.3,17.2-30.5,12.8-13-5.7-8.3-26.7,3.2-31.8,8.2-3.6,27.8-4.2,28.4,8.2h0ZM315.1,308.5c-1.6.3-3.9,1.9-4.2,3.6-1.2,6.8,15.1,7,14.7,0-.2-4.3-7.5-4.2-10.5-3.6h0Z"/>
    <path class="st1" d="M185,315.6h23.3l-1.4,8.4-36.8.5c-.1-8.8,3.5-13.9,11.5-17,3-1.2,15.8-3.8,16.8-5.5,3.1-5.3-6.4-5.6-9.7-4-1.8.9-2.3,2.9-3.4,4.4h-11.4c1.1-12.7,17.3-14.5,27.3-12.6,7.1,1.4,12.6,5.8,9.4,13.5-3.1,7.4-17.1,7.9-23.7,10.7-.8.3-1.7.8-1.9,1.7h0Z"/>
    <path class="st1" d="M271.5,315.6h22.5c1.4,2.1-.9,5.8-.8,8.3h-37.1c1.1-16.1,11.9-15.9,23.7-19.8,15.2-5-5.9-12.4-7.6-1.8h-11.4c-1.5-1.6,1-5.7,2.2-7.2,5.5-7,21.3-7.2,29-4,5.4,2.3,7.4,7.3,4.6,12.6-4.4,8.4-18.4,6.4-25,11.9h0Z"/>
  </g>
</svg>